<svg xmlns="http://www.w3.org/2000/svg" xmlns:xlink="http://www.w3.org/1999/xlink" width="20" height="20" viewBox="0 0 20 20" aria-hidden="true" focusable="false"><title>INDIA</title><defs><path d="M.003 10c0 5.516 4.485 10.002 10 10.002s10-4.486 10-10c0-5.516-4.485-10-10-10s-10 4.484-10 10z" id="a"></path><path d="M10.003 20.002c5.515 0 10-4.486 10-10 0-5.516-4.485-10-10-10s-10 4.484-10 10c0 5.514 4.485 10 10 10z" id="d"></path><filter x="-2.5%" y="-2.5%" width="105%" height="105%" filterUnits="objectBoundingBox" id="c"><feGaussianBlur stdDeviation=".5" in="SourceAlpha" result="shadowBlurInner1"></feGaussianBlur><feOffset in="shadowBlurInner1" result="shadowOffsetInner1"></feOffset><feComposite in="shadowOffsetInner1" in2="SourceAlpha" operator="arithmetic" k2="-1" k3="1" result="shadowInnerInner1"></feComposite><feColorMatrix values="0 0 0 0 0 0 0 0 0 0 0 0 0 0 0 0 0 0 0.5 0" in="shadowInnerInner1"></feColorMatrix></filter></defs><g fill="none" fill-rule="evenodd"><mask id="b" fill="#fff"><use xlink:href="#a"></use></mask><path fill="green" mask="url(#b)" d="M0 20h20v-6H0"></path><path fill="#FFF" mask="url(#b)" d="M0 14V6h20v8"></path><path fill="orange" mask="url(#b)" d="M0 6h20V0H0"></path><use filter="url(#c)" xlink:href="#d" fill="#000"></use></g><g transform="translate(10,10)"><circle r="0.8" fill="#008"></circle><circle r="0.5" fill="#fff"></circle><circle r="0.8" fill="#008"></circle><g id="j"><g id="i"><g id="h"><g id="g"><circle r="0.3" fill="#008" transform="rotate(2.5) translate(2.5)"></circle><path fill="#008" d="M 0, 0.9, C 0.6,4 0,2 0,2 0,2 -0.6,0 -0.6, L 0,12 z"></path></g><use xlink:href="#g" transform="rotate(15)"></use></g><use xlink:href="#h" transform="rotate(30)"></use></g><use xlink:href="#i" transform="rotate(60)"></use></g><use xlink:href="#j" transform="rotate(120)"></use><use xlink:href="#j" transform="rotate(-120)"></use></g></svg>